HIERARCHY
ROOT Hips
{
  OFFSET 0.0 0.0 0.0
  CHANNELS 6 Xposition Yposition Zposition Zrotation Yrotation Xrotation
  JOINT LHipJoint
  {
    OFFSET 0.0 0.0 0.0
    CHANNELS 3 Zrotation Yrotation Xrotation
    JOINT LeftUpLeg
    {
      OFFSET 1.363059998 -1.794630051 0.839290023
      CHANNELS 3 Zrotation Yrotation Xrotation
      JOINT LeftLeg
      {
        OFFSET 2.448110104 -6.726130009 0.0
        CHANNELS 3 Zrotation Yrotation Xrotation
        JOINT LeftFoot
        {
          OFFSET 2.562200069 -7.039589882 0.0
          CHANNELS 3 Zrotation Yrotation Xrotation
          JOINT LeftToeBase
          {
            OFFSET 0.157639995 -0.433109999 2.322550058
            CHANNELS 3 Zrotation Yrotation Xrotation
            End Site
            {
              OFFSET 0.0 -0.0 1.189659953
            }
          }
        }
      }
    }
  }
  JOINT RHipJoint
  {
    OFFSET 0.0 0.0 0.0
    CHANNELS 3 Zrotation Yrotation Xrotation
    JOINT RightUpLeg
    {
      OFFSET -1.305520058 -1.794630051 0.839290023
      CHANNELS 3 Zrotation Yrotation Xrotation
      JOINT RightLeg
      {
        OFFSET -2.54253006 -6.985549927 0.0
        CHANNELS 3 Zrotation Yrotation Xrotation
        JOINT RightFoot
        {
          OFFSET -2.568259954 -7.056230068 0.0
          CHANNELS 3 Zrotation Yrotation Xrotation
          JOINT RightToeBase
          {
            OFFSET -0.164729998 -0.452589989 2.363149881
            CHANNELS 3 Zrotation Yrotation Xrotation
            End Site
            {
              OFFSET -0.0 -0.0 1.21081996
            }
          }
        }
      }
    }
  }
  JOINT LowerBack
  {
    OFFSET 0.0 0.0 0.0
    CHANNELS 3 Zrotation Yrotation Xrotation
    JOINT Spine
    {
      OFFSET 0.028270001 2.035589933 -0.193379998
      CHANNELS 3 Zrotation Yrotation Xrotation
      JOINT Spine1
      {
        OFFSET 0.05672 2.04885006 -0.042750001
        CHANNELS 3 Zrotation Yrotation Xrotation
        JOINT Neck
        {
          OFFSET 0.0 0.0 0.0
          CHANNELS 3 Zrotation Yrotation Xrotation
          JOINT Neck1
          {
            OFFSET -0.054170001 1.74624002 0.172020003
            CHANNELS 3 Zrotation Yrotation Xrotation
            JOINT Head
            {
              OFFSET 0.10407 1.761360049 -0.123970002
              CHANNELS 3 Zrotation Yrotation Xrotation
              End Site
              {
                OFFSET 0.0372 1.770439982 -0.062410001
              }
            }
          }
        }
        JOINT LeftShoulder
        {
          OFFSET 0.0 0.0 0.0
          CHANNELS 3 Zrotation Yrotation Xrotation
          JOINT LeftArm
          {
            OFFSET 3.362410069 1.200889945 -0.311210006
            CHANNELS 3 Zrotation Yrotation Xrotation
            JOINT LeftForeArm
            {
              OFFSET 4.982999802 -0.0 -0.0
              CHANNELS 3 Zrotation Yrotation Xrotation
              JOINT LeftHand
              {
                OFFSET 3.483560085 -0.0 -0.0
                CHANNELS 3 Zrotation Yrotation Xrotation
                JOINT LeftFingerBase
                {
                  OFFSET 0.0 0.0 0.0
                  CHANNELS 3 Zrotation Yrotation Xrotation
                  JOINT LeftHandIndex1
                  {
                    OFFSET 0.715260029 -0.0 -0.0
                    CHANNELS 3 Zrotation Yrotation Xrotation
                    End Site
                    {
                      OFFSET 0.576659977 -0.0 -0.0
                    }
                  }
                }
                JOINT LThumb
                {
                  OFFSET 0.0 0.0 0.0
                  CHANNELS 3 Zrotation Yrotation Xrotation
                  End Site
                  {
                    OFFSET 0.585470021 -0.0 0.585470021
                  }
                }
              }
            }
          }
        }
        JOINT RightShoulder
        {
          OFFSET 0.0 0.0 0.0
          CHANNELS 3 Zrotation Yrotation Xrotation
          JOINT RightArm
          {
            OFFSET -3.136600018 1.374050021 -0.404650003
            CHANNELS 3 Zrotation Yrotation Xrotation
            JOINT RightForeArm
            {
              OFFSET -5.241899967 -0.0 -0.0
              CHANNELS 3 Zrotation Yrotation Xrotation
              JOINT RightHand
              {
                OFFSET -3.444169998 -0.0 -0.0
                CHANNELS 3 Zrotation Yrotation Xrotation
                JOINT RightFingerBase
                {
                  OFFSET 0.0 0.0 0.0
                  CHANNELS 3 Zrotation Yrotation Xrotation
                  JOINT RightHandIndex1
                  {
                    OFFSET -0.622529984 -0.0 -0.0
                    CHANNELS 3 Zrotation Yrotation Xrotation
                    End Site
                    {
                      OFFSET -0.501900017 -0.0 -0.0
                    }
                  }
                }
                JOINT RThumb
                {
                  OFFSET 0.0 0.0 0.0
                  CHANNELS 3 Zrotation Yrotation Xrotation
                  End Site
                  {
                    OFFSET -0.509559989 -0.0 0.509559989
                  }
                }
              }
            }
          }
        }
      }
    }
  }
}
MOTION
Frames: 11
Frame Time: 0.0083333
11.336163521 30.388799667 37.788696289 -13.386123657 -84.425743103 28.542013168 0.0 -0.0 0.0 -9.284701347 -9.433000565 -39.269298553 11.77970314 18.29599762 65.288787842 -0.004999999 -1.73810041 -0.65049994 0.813599885 5.755899906 16.077798843 0.0 -0.0 0.0 20.787899017 12.583100319 -36.01550293 -6.418000698 -14.821503639 46.636909485 -0.68960005 0.17279993 -15.635804176 -2.003800392 -8.873902321 25.401702881 -1.676399827 -1.378900409 36.924304962 4.025700569 -3.429100513 12.270000458 6.380300522 -2.42620039 -4.547999382 -6.281400681 -1.183899879 -2.311100006 1.801399708 -2.148799658 23.118793488 1.477100253 -1.611700177 7.558300018 0.0 -0.0 0.0 -72.151008606 -50.356391907 40.403705597 32.062679291 -42.597080231 -12.783286095 0.0 -0.0 32.674098969 56.427799225 -21.808797836 -29.238203049 -7.125 0.0 0.0 16.253900528 -4.658400536 -18.24439621 0.0 -0.0 0.0 31.710639954 79.224349976 7.098252296 -46.663215637 51.557811737 -23.534410477 0.0 -0.0 6.006400108 -15.201897621 -13.161299706 3.540399551 7.125 -0.0 0.0 11.042003632 -43.325714111 0.46219939 
11.345562935 30.365999222 37.782096863 -13.564717293 -84.787368774 28.776031494 0.0 -0.0 0.0 -10.032400131 -6.060601711 -39.051906586 10.809201241 17.840497971 62.160499573 -0.049599994 -3.988899231 0.841799736 0.411300004 4.11689949 11.405799866 0.0 -0.0 0.0 20.360603333 12.977603912 -36.982498169 -6.829199314 -15.186398506 48.225391388 -0.757499993 0.791299999 -16.195898056 -2.231500149 -9.33259964 26.841299057 -2.461499929 -1.576699734 36.93189621 4.384800434 -3.909300566 12.154401779 7.35369873 -2.687299728 -4.572499752 -7.797999859 -0.638599992 -2.62899971 1.9077003 -1.258099914 23.063100815 1.829400182 -1.313199997 7.575500488 0.0 -0.0 0.0 -71.926300049 -50.320899963 38.256809235 31.145414352 -41.855102539 -12.1667099 0.0 -0.0 32.82849884 63.356502533 -28.232803345 -43.315898895 -7.125 0.0 0.0 17.942697525 -18.121997833 -23.582004547 0.0 -0.0 0.0 32.393611908 80.682502747 9.218712807 -46.523002625 51.493099213 -23.424602509 0.0 -0.0 5.571000099 -14.851200104 -13.397399902 3.515800238 7.125 -0.0 0.0 11.412901878 -43.526313782 0.42089805 
11.346562386 30.365200043 37.782295227 -13.662237167 -85.115684509 28.884044647 0.0 -0.0 0.0 -10.515099525 -5.994502068 -37.657302856 9.844603539 17.321500778 58.967502594 -0.040600002 -3.58809948 0.926199794 0.199900016 2.879100323 7.942501068 0.0 -0.0 0.0 19.977100372 13.436898232 -37.943592072 -7.253899097 -15.54199791 49.828300476 -0.799700081 0.967999935 -16.598194122 -2.166999578 -9.205598831 26.440597534 -3.200400829 -1.550199986 37.091503143 4.780800343 -4.100700855 12.034602165 8.25429821 -2.807599783 -4.677999973 -8.727800369 -0.520900011 -3.118900537 1.853800058 -0.959799945 23.333703995 1.988999724 -1.265099883 7.749799728 0.0 -0.0 0.0 -69.401504517 -49.06029129 36.262504578 32.283802032 -42.772304535 -12.933101654 0.0 -0.0 30.761096954 67.660301208 -31.045289993 -51.451004028 -7.125 0.0 0.0 19.222503662 -25.249101639 -26.635404587 0.0 -0.0 0.0 31.657800674 81.835189819 9.376192093 -46.304691315 51.391895294 -23.253892899 0.0 -0.0 5.326499939 -14.339000702 -13.641598701 3.450099707 7.125 -0.0 0.0 11.93200016 -43.716300964 0.383800834 
11.352562904 30.343500137 37.785697937 -14.334609032 -85.492980957 29.494997025 0.0 -0.0 0.0 -10.940299034 -6.158302307 -36.154605865 8.913499832 16.751800537 55.790691376 -0.020400001 -2.53760004 1.128699899 0.173500016 2.683399916 7.398501873 0.0 -0.0 0.0 19.61989975 13.99219799 -38.895900726 -7.696901798 -15.891799927 51.463596344 -0.799999893 0.564499855 -16.721500397 -1.795799971 -8.427101135 24.019098282 -3.623700619 -1.377100348 37.293899536 5.064500332 -4.019499302 11.945698738 8.775001526 -2.784600019 -4.822600842 -8.928701401 -0.524400115 -3.262700081 1.638899922 -0.880099952 23.23749733 1.956099987 -1.259399652 7.743100166 0.0 -0.0 0.0 -69.693389893 -49.251895905 35.560695648 32.147899628 -42.664806366 -12.841001511 0.0 -0.0 30.722696304 74.955696106 -37.11000061 -65.988090515 -7.125 0.0 0.0 20.534704208 -38.209903717 -29.706907272 0.0 -0.0 0.0 29.6223526 82.607208252 7.599656105 -45.958297729 51.229393005 -22.983495712 0.0 -0.0 5.422999859 -13.726297379 -13.850500107 3.346399307 7.125 -0.0 0.0 12.533599854 -43.858196259 0.359098971 
11.344061852 30.359800339 37.783599854 -14.531632423 -85.810539246 29.762931824 0.0 -0.0 0.0 -11.458699226 -5.960096836 -34.932697296 8.002696991 16.121299744 52.572502136 -0.0034 -1.578799844 1.845199585 0.258000046 3.268000603 9.025900841 0.0 -0.0 0.0 19.100795746 14.518099785 -39.94600296 -8.137401581 -16.219400406 53.056003571 -0.804700196 0.378400058 -16.830600739 -1.609400272 -8.000101089 22.714403152 -3.554300308 -1.264400125 37.145393372 5.156599522 -3.842999935 11.905299187 8.772701263 -2.697300196 -4.845500469 -8.632701874 -0.589900136 -3.411200762 1.344600201 -0.918600142 23.204702377 1.805200219 -1.274399877 7.758998394 0.0 -0.0 0.0 -69.79309082 -49.762096405 35.528396606 32.410400391 -42.871910095 -13.01920414 0.0 -0.0 30.213100433 84.642623901 -44.800201416 -82.419311523 -7.125 0.0 0.0 20.57850647 -52.210113525 -29.267602921 0.0 -0.0 0.0 25.366718292 82.855018616 3.332719803 -45.695289612 51.104587555 -22.778589249 0.0 -0.0 5.421800613 -13.391098022 -14.30039978 3.365400076 7.125 -0.0 0.0 12.956195831 -44.269397736 0.237801954 
11.343863487 30.342699051 37.786899567 -13.581106186 -86.018424988 28.768001556 0.0 -0.0 0.0 -11.884100914 -5.831701756 -33.649204254 7.14070034 15.449302673 49.404598236 0.016399996 -0.692400038 2.779100418 0.121800005 2.249700308 6.196300507 0.0 -0.0 0.0 18.613397598 14.886194229 -40.881393433 -8.58740139 -16.534799576 54.652004242 -0.832300007 0.536599994 -17.069299698 -1.612500072 -8.007500648 22.736701965 -3.536000013 -1.076900005 37.182991028 5.219000816 -3.601501226 11.879502296 8.749898911 -2.579299688 -4.923299313 -8.007398605 -0.771099746 -3.512399435 0.953599989 -1.137500167 23.199998856 1.553599715 -1.355200171 7.780400276 0.0 -0.0 0.0 -71.045806885 -50.704898834 36.422691345 32.436904907 -42.89270401 -13.037207603 0.0 -0.0 30.405700684 88.549407959 -47.896087646 -88.045196533 -7.125 0.0 0.0 19.462501526 -56.733707428 -27.17429924 0.0 -0.0 0.0 20.72810936 82.816955566 -1.480402708 -45.606006622 51.061901093 -22.709104538 0.0 -0.0 5.345099926 -13.277400017 -14.811400414 3.4520998 7.125 -0.0 0.0 13.203201294 -44.7643013 0.078198627 
11.341362953 30.341999054 37.792499542 -15.118613243 -86.356590271 30.344907761 0.0 -0.0 0.0 -12.19399929 -5.563000679 -32.605705261 6.365700245 14.773600578 46.432201385 0.039900009 0.202700034 3.704300165 0.148400009 2.482800007 6.841900349 0.0 -0.0 0.0 18.272699356 15.037498474 -41.985099792 -9.047499657 -16.838195801 56.254310608 -0.864200115 1.224900246 -17.196702957 -1.6783005 -8.161003113 23.204204559 -3.505199909 -0.816100001 36.999702454 5.211300373 -3.267900467 11.894599915 8.600300789 -2.418400526 -4.899300575 -7.151298523 -1.076099634 -3.433499336 0.50210011 -1.544400096 22.927602768 1.230100036 -1.500799894 7.681900978 0.0 -0.0 0.0 -69.781700134 -50.555801392 36.707607269 33.978302002 -44.068691254 -14.098003387 0.0 -0.0 28.708501816 87.4320755 -48.105197906 -86.552093506 -7.125 0.0 0.0 18.700502396 -55.855205536 -26.191307068 0.0 -0.0 0.0 17.054962158 82.659095764 -5.680344105 -45.606998444 51.062412262 -22.709896088 0.0 -0.0 5.402000904 -12.834301949 -14.990799904 3.372499943 7.125 -0.0 0.0 13.6541996 -44.890491486 0.037599057 
11.345162392 30.332899094 37.799797058 -15.796006203 -86.75062561 31.055986404 0.0 -0.0 0.0 -12.66160202 -5.055603504 -31.696609497 5.66960144 14.100301743 43.640903473 0.072200008 0.945100248 4.828700066 0.197299987 2.860399723 7.890199661 0.0 -0.0 0.0 17.860500336 15.098694801 -43.080696106 -9.491397858 -17.113800049 57.774604797 -0.900600076 1.937400222 -17.384399414 -1.784600496 -8.402299881 23.942905426 -3.453099966 -0.527800322 36.767192841 5.132100582 -2.899100542 11.939800262 8.346498489 -2.239799738 -4.832098961 -6.677999496 -1.451099992 -3.663100481 0.5479002 -2.081899643 22.915500641 1.123300195 -1.702100277 7.733400822 0.0 -0.0 0.0 -69.813102722 -50.860202789 37.284591675 35.007808685 -44.817703247 -14.818811417 0.0 -0.0 28.138999939 86.332710266 -48.278793335 -85.092010498 -7.125 0.0 0.0 18.008592606 -54.993690491 -25.29249382 0.0 -0.0 0.0 12.359394073 82.442771912 -11.112832069 -45.422405243 50.973804474 -22.566404343 0.0 -0.0 5.470799923 -12.039100647 -14.839798927 3.126499414 7.125 -0.0 0.0 14.322501183 -44.649200439 0.126700535 
11.359362602 30.291000366 37.808498383 -15.702093124 -87.113372803 30.853874207 0.0 -0.0 0.0 -13.074901581 -4.820599079 -30.695400238 5.068699837 13.460700035 41.118591309 0.110100001 1.724600077 5.9039011 0.150100008 2.496199846 6.8791008 0.0 -0.0 0.0 17.489103317 15.40569973 -44.044303894 -9.948998451 -17.380998611 59.317619324 -0.943499804 1.780799747 -17.84349823 -1.676599741 -8.157200813 23.19260025 -3.433600903 -0.193699852 36.723300934 5.081401348 -2.492400408 11.988500595 8.135302544 -2.046100616 -4.826701164 -6.511800289 -1.815099955 -4.017000198 0.922800064 -2.639999866 23.119602203 1.171899915 -1.914600015 7.887001514 0.0 -0.0 0.0 -69.834289551 -51.105205536 37.716983795 36.099407196 -45.581409454 -15.593403816 0.0 -0.0 27.623300552 85.282295227 -48.805702209 -83.741294861 -7.125 0.0 0.0 16.995597839 -54.309509277 -23.907400131 0.0 -0.0 0.0 7.173993587 82.12588501 -16.874715805 -45.123706818 50.828907013 -22.334604263 0.0 -0.0 5.467899799 -11.461900711 -14.553999901 2.916799784 7.125 -0.0 0.0 14.751801491 -44.302902222 0.259699762 
11.35816288 30.305000305 37.806697845 -20.095970154 -87.352401733 35.07000351 0.0 -0.0 0.0 -13.116802216 -5.332201481 -29.27110672 4.488899231 12.784098625 38.565494537 0.128300026 3.122299671 6.403400898 0.196600005 2.854999781 7.875400066 0.0 -0.0 0.0 17.514400482 15.721402168 -44.678897858 -10.323299408 -17.587701797 60.563705444 -0.986400127 1.187599778 -18.410799026 -1.455500126 -7.625500679 21.582304001 -3.228600264 0.070900589 36.778598785 5.0595994 -2.112600327 12.029601097 7.868301392 -1.863400459 -4.861300468 -5.800098896 -2.077399731 -4.238000393 0.833000004 -3.048500538 23.307304382 0.986200035 -2.053600073 7.990101337 0.0 -0.0 0.0 -70.621406555 -51.517795563 38.372711182 36.743595123 -46.017795563 -16.055295944 0.0 -0.0 27.750501633 83.870506287 -49.250709534 -81.931800842 -7.125 0.0 0.0 15.949002266 -53.331802368 -22.486299515 0.0 -0.0 0.0 3.528488398 81.855003357 -21.139499664 -44.922302246 50.730297089 -22.178499222 0.0 -0.0 5.679299831 -11.010100365 -14.294498444 2.750299692 7.125 -0.0 0.0 15.075397491 -43.998401642 0.381802201 
11.37536335 30.291099548 37.806297302 -22.961036682 -87.700500488 37.757041931 0.0 -0.0 0.0 -13.28180027 -6.086800098 -27.771802902 3.961101294 12.108501434 36.116703033 0.117299989 4.598099709 6.440599442 0.534300089 4.683799744 13.008899689 0.0 -0.0 0.0 17.289905548 16.029699326 -45.353595734 -10.712305069 -17.791402817 61.843708038 -1.021799803 0.845600069 -18.84459877 -1.293200016 -7.205199718 20.324798584 -3.227699518 0.279099435 36.753498077 4.959099293 -1.875899553 12.087199211 7.672900677 -1.753200412 -4.824100018 -4.563499928 -2.155100346 -4.240600586 0.201400071 -3.167999983 23.287996292 0.559500039 -2.060600042 7.953500271 0.0 -0.0 0.0 -70.49520874 -52.15650177 38.452396393 37.020298004 -46.201999664 -16.25469017 0.0 -0.0 27.3458004 62.824913025 -24.822797775 -39.274307251 -7.125 0.0 0.0 18.764698029 -13.32599926 -23.721002579 0.0 -0.0 0.0 0.699884892 81.782623291 -24.599119186 -44.899505615 50.719207764 -22.160999298 0.0 -0.0 5.810100079 -10.526299477 -14.232002258 2.615600348 7.125 -0.0 0.0 15.485002518 -43.884307861 0.437399417 
